<svg  xmlns="http://www.w3.org/2000/svg">

    <symbol version="1.1" id="hotel" xmlns="http://www.w3.org/2000/svg" 
	 viewBox="0 0 512 512">
        <g>
            <g>
                <path d="M2480 5104 c-37 -16 -94 -66 -113 -99 -7 -12 -14 -84 -17 -174 l-5
                        -153 -105 -34 c-284 -93 -502 -279 -634 -541 -82 -164 -116 -326 -116 -555 l0
                        -138 -663 1 c-462 0 -672 -3 -693 -11 -71 -27 -133 -119 -134 -198 0 -73 35
                        -135 105 -185 26 -19 47 -23 175 -27 l145 -5 3 -867 2 -867 -82 -43 c-161 -83
                        -283 -237 -328 -414 -87 -338 124 -687 466 -774 282 -72 587 66 722 328 l43
                        82 1309 0 1309 0 43 -82 c83 -161 237 -283 414 -328 338 -87 687 124 774 466
                        72 282 -66 587 -328 722 l-82 43 2 867 3 867 145 5 c128 4 149 8 175 27 70 50
                        105 112 105 185 -1 79 -63 171 -134 198 -21 8 -231 11 -693 11 l-663 -1 0 128
                        c0 231 -28 378 -104 538 -80 168 -182 295 -329 405 -99 74 -190 121 -321 164
                        l-101 33 -5 153 c-5 165 -9 178 -72 236 -54 51 -149 67 -218 37z m235 -859
                        c215 -55 391 -226 460 -445 12 -38 19 -105 22 -217 l6 -163 -643 0 -643 0 6
                        163 c5 180 16 227 75 342 52 101 173 220 272 268 41 20 100 43 130 51 74 20
                        240 20 315 1z m1553 -1473 l2 -212 -1703 0 -1704 0 -6 107 c-8 119 -9 307 -3
                        314 2 2 771 4 1708 4 l1703 0 3 -213z m2 -1081 l0 -440 -82 -43 c-113 -58
                        -218 -163 -276 -275 l-43 -83 -1309 0 -1309 0 -43 83 c-58 112 -163 217 -275
                        275 l-83 43 0 440 0 439 1710 0 1710 0 0 -439z m-3552 -857 c110 -45 162 -174
                        113 -279 -76 -165 -306 -165 -382 0 -78 167 99 351 269 279z m3840 0 c78 -32
                        132 -111 132 -194 0 -113 -97 -210 -210 -210 -146 0 -250 155 -194 288 44 107
                        168 160 272 116z"/>
            </g>
        </g>
    </symbol>

    <svg id="successAnimation" class="animated" xmlns="http://www.w3.org/2000/svg" width="70" height="70" viewBox="0 0 70 70">
  <path id="successAnimationResult" fill="#D8D8D8" d="M35,60 C21.1928813,60 10,48.8071187 10,35 C10,21.1928813 21.1928813,10 35,10 C48.8071187,10 60,21.1928813 60,35 C60,48.8071187 48.8071187,60 35,60 Z M23.6332378,33.2260427 L22.3667622,34.7739573 L34.1433655,44.40936 L47.776114,27.6305926 L46.223886,26.3694074 L33.8566345,41.59064 L23.6332378,33.2260427 Z"/>
  <circle id="successAnimationCircle" cx="35" cy="35" r="24" stroke="#979797" stroke-width="2" stroke-linecap="round" fill="transparent"/>
  <polyline id="successAnimationCheck" stroke="#979797" stroke-width="2" points="23 34 34 43 47 27" fill="transparent"/>
</svg>

    <symbol version="1.1" id="return" xmlns="http://www.w3.org/2000/svg" 
	 viewBox="0 0 336 337">
        <g>
            <g>
                <path d="M168.1 337.2C213 337.2 255.2 319.7 287 287.9C316.5 258.4 333.9 219.2 336 177.5C336.2 173.4 333 169.8 328.9 169.6C324.8 169.4 321.2 172.6 321 176.7C319.1 214.6 303.2 250.3 276.3 277.2C247.4 306.1 208.9 322.1 168 322.1C127.1 322.1 88.6 306.2 59.7 277.2C0 217.5 0 120.3 59.7 60.6C110.6 9.7 189.8 1.2 250 39.5L233.1 60.2L281.6 55.3L276.7 6.8L259.6 27.8C193.3 -15.4 105.4 -6.3 49.1 50C-16.5 115.6 -16.5 222.2 49.1 287.8C81 319.7 123.2 337.2 168.1 337.2Z" />
			<path d="M247.5 135.9L247.5 248.7C247.5 252.8 244.1 256.2 240 256.2L95.9 256.2C91.8 256.2 88.4 252.8 88.4 248.7L88.4 135.8C88.4 135.3 88.5 134.8 88.6 134.3C88.7 134.3 88.7 134.2 88.7 134.1C88.7 133.9 88.8 133.8 88.8 133.6C88.8 133.5 88.8 133.3 88.9 133.2C88.9 133.1 89 133 89 132.9C89.2 132.5 89.4 132 89.7 131.6L121.5 85C122.9 82.9 125.2 81.7 127.7 81.7L208.3 81.7C210.8 81.7 213.1 82.9 214.5 85L246.3 131.7C246.6 132.1 246.8 132.5 247 133C247 133.1 247.1 133.2 247.1 133.3C247.1 133.4 247.2 133.6 247.2 133.7C247.2 133.9 247.3 134 247.3 134.2C247.4 134.2 247.4 134.3 247.4 134.4C247.5 134.8 247.5 135.3 247.5 135.9ZM110.1 128.3L225.8 128.3L204.3 96.7L131.7 96.7L110.1 128.3ZM232.6 241.3L232.6 143.4L103.5 143.4L103.5 241.3L232.6 241.3Z" />
            </g>
        </g>
    </symbol>

    <symbol version="1.1" id="24/7" xmlns="http://www.w3.org/2000/svg" 
	 viewBox="0 0 512 512">
        <g>
            <g>
                <path d="M456,248a7.9979,7.9979,0,0,0-8,8,192.0091,192.0091,0,1,1-71.436-149.4219H342.8281a8,8,0,0,0,0,16h54.5938a8.031,8.031,0,0,0,8-8V59.9844a8,8,0,1,0-16,0V96.4609a207.9878,207.9878,0,0,0-280.5,306.6172A208,208,0,0,0,464,256,7.9979,7.9979,0,0,0,456,248Z"/><path d="M300.1914,198.5859l-40.7656,112a7.9976,7.9976,0,1,0,15.0312,5.4688l40.7657-112a7.9976,7.9976,0,0,0-15.0313-5.4688Z"/><path d="M188.4844,241.5313a29.3557,29.3557,0,0,0-8.6524-20.8907c-11.164-11.1718-30.6172-11.1718-41.7812,0a29.3437,29.3437,0,0,0-8.6563,20.8907,8,8,0,0,0,16,0,13.4662,13.4662,0,0,1,3.9688-9.5782,13.8555,13.8555,0,0,1,19.1562,0,13.5422,13.5422,0,0,1,0,19.1485l-36.7812,36.7812a7.9993,7.9993,0,0,0,5.6562,13.6563h43.09a8,8,0,0,0,0-16H156.707l23.125-23.125A29.3376,29.3376,0,0,0,188.4844,241.5313Z"/><path d="M234.09,301.5391a7.9979,7.9979,0,0,0,8-8v-11.93h4.129a8,8,0,0,0,0-16H242.09v-45.625a8.0028,8.0028,0,0,0-14.6914-4.3906l-35.164,53.625a8.0017,8.0017,0,0,0,6.6914,12.3906H226.09v11.93A7.998,7.998,0,0,0,234.09,301.5391Zm-20.3515-35.93,12.3515-18.836v18.836Z"/><path d="M342.9531,293.5391a8,8,0,0,0,16,0V277.07a72.2724,72.2724,0,0,1,21.3047-51.43,7.9993,7.9993,0,0,0-5.6562-13.6562h-47.293a8,8,0,0,0,0,16h30.4258A88.1067,88.1067,0,0,0,342.9531,277.07Z"/>
            </g>
        </g>
    </symbol>

    <symbol version="1.1" id="card" xmlns="http://www.w3.org/2000/svg" viewBox="0 0 64 45">
        <g>
            <g>
                <path id="Layer" fill-rule="evenodd" class="shp0" d="M57.5 0C58.35 0 59.2 0.17 59.99 0.5C60.77 0.82 61.49 1.3 62.09 1.91C62.7 2.51 63.18 3.23 63.5 4.01C63.83 4.8 64 5.65 64 6.5L64 38.5C64 39.35 63.83 40.2 63.5 40.99C63.18 41.77 62.7 42.49 62.09 43.09C61.49 43.7 60.77 44.18 59.99 44.5C59.2 44.83 58.35 45 57.5 45L6.5 45C5.65 45 4.8 44.83 4.01 44.5C3.23 44.18 2.51 43.7 1.91 43.09C1.3 42.49 0.82 41.77 0.5 40.99C0.17 40.2 0 39.35 0 38.5L0 6.5C0 5.65 0.17 4.8 0.5 4.01C0.82 3.23 1.3 2.51 1.91 1.91C2.51 1.3 3.23 0.82 4.01 0.5C4.8 0.17 5.65 0 6.5 0L57.5 0ZM6.5 1C5.78 1 5.06 1.14 4.4 1.42C3.73 1.7 3.12 2.1 2.61 2.61C2.1 3.12 1.7 3.73 1.42 4.4C1.14 5.06 1 5.78 1 6.5L1 10L63 10L63 6.5C63 5.78 62.86 5.06 62.58 4.4C62.3 3.73 61.9 3.12 61.39 2.61C60.88 2.1 60.27 1.7 59.6 1.42C58.94 1.14 58.22 1 57.5 1L6.5 1ZM63 11L1 11L1 27L63 27L63 11ZM57.5 44C58.22 44 58.94 43.86 59.6 43.58C60.27 43.3 60.88 42.9 61.39 42.39C61.9 41.88 62.3 41.27 62.58 40.6C62.86 39.94 63 39.22 63 38.5L63 28L1 28L1 38.5C1 39.22 1.14 39.94 1.42 40.6C1.7 41.27 2.1 41.88 2.61 42.39C3.12 42.9 3.73 43.3 4.4 43.58C5.06 43.86 5.78 44 6.5 44L57.5 44Z" />
		        <path id="Layer" fill-rule="evenodd" class="shp0" d="M51.28 33.68C52.04 34.74 52.23 36.1 51.8 37.33C51.37 38.56 50.36 39.5 49.11 39.85C47.86 40.2 46.51 39.92 45.5 39.1C44.3 40.08 42.65 40.28 41.26 39.61C39.86 38.95 38.97 37.54 38.97 36C38.97 34.46 39.86 33.05 41.26 32.39C42.65 31.72 44.3 31.92 45.5 32.9C45.68 32.76 45.86 32.63 46.06 32.52C46.25 32.41 46.46 32.31 46.67 32.24C46.89 32.16 47.1 32.1 47.33 32.06C47.55 32.02 47.77 32 48 32C49.3 31.99 50.53 32.62 51.28 33.68ZM45.87 36.86C45.95 36.58 45.99 36.29 45.99 36C45.99 35.71 45.95 35.42 45.87 35.14C45.78 34.86 45.66 34.59 45.5 34.35C45.34 34.59 45.22 34.86 45.13 35.14C45.05 35.42 45.01 35.71 45.01 36C45.01 36.29 45.05 36.58 45.13 36.86C45.22 37.14 45.34 37.41 45.5 37.65C45.66 37.41 45.78 37.14 45.87 36.86ZM40.23 37.15C40.38 37.51 40.6 37.84 40.88 38.12C41.16 38.4 41.49 38.62 41.85 38.77C42.22 38.92 42.61 39 43 39C43.16 39 43.32 38.98 43.48 38.96C43.64 38.93 43.8 38.89 43.95 38.84C44.1 38.78 44.25 38.72 44.39 38.64C44.54 38.57 44.67 38.48 44.8 38.38C44.54 38.04 44.34 37.66 44.21 37.26C44.07 36.85 44 36.43 44 36C44 35.57 44.07 35.15 44.21 34.74C44.34 34.34 44.54 33.96 44.8 33.62C44.67 33.52 44.54 33.43 44.39 33.36C44.25 33.28 44.1 33.22 43.95 33.16C43.8 33.11 43.64 33.07 43.48 33.04C43.32 33.02 43.16 33 43 33C42.61 33 42.22 33.08 41.85 33.23C41.49 33.38 41.16 33.6 40.88 33.88C40.6 34.16 40.38 34.49 40.23 34.85C40.08 35.22 40 35.61 40 36C40 36.39 40.08 36.78 40.23 37.15ZM50.12 38.12C50.68 37.56 51 36.8 51 36C51 35.2 50.68 34.44 50.12 33.88C49.56 33.32 48.8 33 48 33C47.84 33 47.68 33.02 47.52 33.04C47.36 33.07 47.2 33.11 47.05 33.16C46.9 33.22 46.75 33.28 46.61 33.36C46.46 33.43 46.33 33.52 46.2 33.62C46.46 33.96 46.66 34.34 46.79 34.74C46.93 35.15 47 35.57 47 36C47 36.43 46.93 36.85 46.79 37.26C46.66 37.66 46.46 38.04 46.2 38.38C46.33 38.48 46.46 38.57 46.61 38.64C46.75 38.72 46.9 38.78 47.05 38.84C47.2 38.89 47.36 38.93 47.52 38.96C47.68 38.98 47.84 39 48 39C48.8 39 49.56 38.68 50.12 38.12Z" />
		        <path id="Layer" class="shp0" d="M14.5 34L5.5 34C5.37 34 5.24 34.05 5.15 34.15C5.05 34.24 5 34.37 5 34.5C5 34.63 5.05 34.76 5.15 34.85C5.24 34.95 5.37 35 5.5 35L14.5 35C14.63 35 14.76 34.95 14.85 34.85C14.95 34.76 15 34.63 15 34.5C15 34.37 14.95 34.24 14.85 34.15C14.76 34.05 14.63 34 14.5 34Z" />
		        <path id="Layer" class="shp0" d="M8.5 37L5.5 37C5.37 37 5.24 37.05 5.15 37.15C5.05 37.24 5 37.37 5 37.5C5 37.63 5.05 37.76 5.15 37.85C5.24 37.95 5.37 38 5.5 38L8.5 38C8.63 38 8.76 37.95 8.85 37.85C8.95 37.76 9 37.63 9 37.5C9 37.37 8.95 37.24 8.85 37.15C8.76 37.05 8.63 37 8.5 37Z" />
		        <path id="Layer" class="shp0" d="M14.5 37L11.5 37C11.37 37 11.24 37.05 11.15 37.15C11.05 37.24 11 37.37 11 37.5C11 37.63 11.05 37.76 11.15 37.85C11.24 37.95 11.37 38 11.5 38L14.5 38C14.63 38 14.76 37.95 14.85 37.85C14.95 37.76 15 37.63 15 37.5C15 37.37 14.95 37.24 14.85 37.15C14.76 37.05 14.63 37 14.5 37Z" />
            </g>
        </g>
    </symbol>

    <symbol version="1.1" id="shop" xmlns="http://www.w3.org/2000/svg"
	 viewBox="0 0 489.4 489.4">
        <g>
            <g>
                <path d="M347.7,263.75h-66.5c-18.2,0-33,14.8-33,33v51c0,18.2,14.8,33,33,33h66.5c18.2,0,33-14.8,33-33v-51
                    C380.7,278.55,365.9,263.75,347.7,263.75z M356.7,347.75c0,5-4.1,9-9,9h-66.5c-5,0-9-4.1-9-9v-51c0-5,4.1-9,9-9h66.5
                    c5,0,9,4.1,9,9V347.75z"/>
                <path d="M489.4,171.05c0-2.1-0.5-4.1-1.6-5.9l-72.8-128c-2.1-3.7-6.1-6.1-10.4-6.1H84.7c-4.3,0-8.3,2.3-10.4,6.1l-72.7,128
                    c-1,1.8-1.6,3.8-1.6,5.9c0,28.7,17.3,53.3,42,64.2v211.1c0,6.6,5.4,12,12,12h66.3c0.1,0,0.2,0,0.3,0h93c0.1,0,0.2,0,0.3,0h221.4
                    c6.6,0,12-5.4,12-12v-209.6c0-0.5,0-0.9-0.1-1.3C472,224.55,489.4,199.85,489.4,171.05z M91.7,55.15h305.9l56.9,100.1H34.9
                    L91.7,55.15z M348.3,179.15c-3.8,21.6-22.7,38-45.4,38c-22.7,0-41.6-16.4-45.4-38H348.3z M232,179.15c-3.8,21.6-22.7,38-45.4,38
                    s-41.6-16.4-45.5-38H232z M24.8,179.15h90.9c-3.8,21.6-22.8,38-45.5,38C47.5,217.25,28.6,200.75,24.8,179.15z M201.6,434.35h-69
                    v-129.5c0-9.4,7.6-17.1,17.1-17.1h34.9c9.4,0,17.1,7.6,17.1,17.1v129.5H201.6z M423.3,434.35H225.6v-129.5
                    c0-22.6-18.4-41.1-41.1-41.1h-34.9c-22.6,0-41.1,18.4-41.1,41.1v129.6H66v-193.3c1.4,0.1,2.8,0.1,4.2,0.1
                    c24.2,0,45.6-12.3,58.2-31c12.6,18.7,34,31,58.2,31s45.5-12.3,58.2-31c12.6,18.7,34,31,58.1,31c24.2,0,45.5-12.3,58.1-31
                    c12.6,18.7,34,31,58.2,31c1.4,0,2.7-0.1,4.1-0.1L423.3,434.35L423.3,434.35z M419.2,217.25c-22.7,0-41.6-16.4-45.4-38h90.9
                    C460.8,200.75,441.9,217.25,419.2,217.25z"/>
            </g>
        </g>
        <g>
        </g>
        <g>
        </g>
        <g>
        </g>
        <g>
        </g>
        <g>
        </g>
        <g>
        </g>
        <g>
        </g>
        <g>
        </g>
        <g>
        </g>
        <g>
        </g>
        <g>
        </g>
        <g>
        </g>
        <g>
        </g>
        <g>
        </g>
        <g>
        </g>
    </symbol>

    <symbol version="1.1" id="secure-payment" xmlns="http://www.w3.org/2000/svg"
	 viewBox="0 0 512 512">
        <g>
            <g>
                <path d="M496,319.996c-8.832,0-16,7.168-16,16v112H32v-192h176c8.832,0,16-7.168,16-16c0-8.832-7.168-16-16-16H32v-64h176
                    c8.832,0,16-7.168,16-16c0-8.832-7.168-16-16-16H32c-17.664,0-32,14.336-32,32v288c0,17.664,14.336,32,32,32h448
                    c17.664,0,32-14.336,32-32v-112C512,327.164,504.832,319.996,496,319.996z"/>
            </g>
        </g>
        <g>
            <g>
                <path d="M144,319.996H80c-8.832,0-16,7.168-16,16c0,8.832,7.168,16,16,16h64c8.832,0,16-7.168,16-16
                    C160,327.164,152.832,319.996,144,319.996z"/>
            </g>
        </g>
        <g>
            <g>
                <path d="M502.304,81.276l-112-48c-4.064-1.696-8.576-1.696-12.64,0l-112,48c-5.856,2.528-9.664,8.32-9.664,14.72v64
                    c0,88.032,32.544,139.488,120.032,189.888c2.464,1.408,5.216,2.112,7.968,2.112s5.504-0.704,7.968-2.112
                    C479.456,299.612,512,248.156,512,159.996v-64C512,89.596,508.192,83.804,502.304,81.276z M480,159.996
                    c0,73.888-24.448,114.56-96,157.44c-71.552-42.976-96-83.648-96-157.44v-53.44l96-41.152l96,41.152V159.996z"/>
            </g>
        </g>
        <g>
            <g>
                <path d="M442.016,131.484c-6.88-5.44-16.928-4.384-22.496,2.496l-50.304,62.912l-19.904-29.76
                    c-4.96-7.36-14.912-9.312-22.176-4.448c-7.328,4.896-9.344,14.848-4.448,22.176l32,48c2.848,4.256,7.52,6.88,12.64,7.136
                    c0.224,0,0.48,0,0.672,0c4.832,0,9.44-2.176,12.512-6.016l64-80C450.016,147.068,448.928,137.02,442.016,131.484z"/>
            </g>
        </g>
        <g>
        </g>
        <g>
        </g>
        <g>
        </g>
        <g>
        </g>
        <g>
        </g>
        <g>
        </g>
        <g>
        </g>
        <g>
        </g>
        <g>
        </g>
        <g>
        </g>
        <g>
        </g>
        <g>
        </g>
        <g>
        </g>
        <g>
        </g>
        <g>
        </g>
    </symbol>

    <symbol id="return" viewBox="0 0 512 512" xmlns="http://www.w3.org/2000/svg">
        <g><path d="m256 81c-30.645 0-55.578 24.932-55.578 55.577v27.608h-50.534l-12.383 227.572h236.987l-12.382-227.572h-50.534v-27.608c.002-30.645-24.93-55.577-55.576-55.577zm86.818 280.758h-173.635l9.118-167.572h155.399zm-86.818-250.758c14.104 0 25.577 11.474 25.577 25.577v27.608h-51.155v-27.608c.001-14.103 11.475-25.577 25.578-25.577z"/><path d="m472.292 119.073 34.368 6.026 5.18-29.549-86.323-15.134-15.134 86.324 29.549 5.181 6.575-37.501c23.016 36.111 35.493 78.446 35.493 121.58 0 60.367-23.508 117.12-66.194 159.806-42.685 42.686-99.438 66.194-159.806 66.194s-117.12-23.508-159.806-66.194c-42.686-42.685-66.194-99.439-66.194-159.806s23.508-117.12 66.194-159.806c42.686-42.685 99.439-66.194 159.806-66.194 43.585 0 85.887 12.427 122.334 35.938l16.262-25.21c-41.304-26.644-89.23-40.728-138.596-40.728-68.38 0-132.667 26.628-181.019 74.98-48.352 48.353-74.981 112.64-74.981 181.02s26.629 132.668 74.981 181.02 112.639 74.98 181.019 74.98 132.667-26.629 181.02-74.98c48.352-48.352 74.98-112.64 74.98-181.02 0-48.54-13.955-96.191-39.708-136.927z"/><path d="m209.667 262.972h92.666v30h-92.666z"/></g>
    </symbol>


</svg>