<svg version="1.2" baseProfile="tiny-ps" xmlns="http://www.w3.org/2000/svg" viewBox="0 0 27 27" width="27" height="27">
	<title>4-svg</title>
	<style>
		tspan { white-space:pre }
		.shp0 { fill: #212529 } 
	</style>
	<path id="Layer" class="shp0" d="M0 0L6 0L6 6L0 6L0 0Z" />
	<path id="Layer" class="shp0" d="M0 7L6 7L6 13L0 13L0 7Z" />
	<path id="Layer" class="shp0" d="M0 14L6 14L6 20L0 20L0 14Z" />
	<path id="Layer" class="shp0" d="M0 21L6 21L6 27L0 27L0 21Z" />
	<path id="Layer" class="shp0" d="M7 0L13 0L13 6L7 6L7 0Z" />
	<path id="Layer" class="shp0" d="M7 7L13 7L13 13L7 13L7 7Z" />
	<path id="Layer" class="shp0" d="M7 14L13 14L13 20L7 20L7 14Z" />
	<path id="Layer" class="shp0" d="M7 21L13 21L13 27L7 27L7 21Z" />
	<path id="Layer" class="shp0" d="M14 0L20 0L20 6L14 6L14 0Z" />
	<path id="Layer" class="shp0" d="M14 7L20 7L20 13L14 13L14 7Z" />
	<path id="Layer" class="shp0" d="M14 14L20 14L20 20L14 20L14 14Z" />
	<path id="Layer" class="shp0" d="M14 21L20 21L20 27L14 27L14 21Z" />
	<path id="Layer" class="shp0" d="M21 0L27 0L27 6L21 6L21 0Z" />
	<path id="Layer" class="shp0" d="M21 7L27 7L27 13L21 13L21 7Z" />
	<path id="Layer" class="shp0" d="M21 14L27 14L27 20L21 20L21 14Z" />
	<path id="Layer" class="shp0" d="M21 21L27 21L27 27L21 27L21 21Z" />
</svg>